<svg width="162" height="32" viewBox="0 0 162 32" fill="none" xmlns="http://www.w3.org/2000/svg">
<path d="M48.072 7.2C52.44 7.2 55.08 9.408 55.08 13.056C55.08 16.704 52.44 18.912 48.072 18.912H43.92V24H41.52V7.2H48.072ZM48 16.824C51.072 16.824 52.68 15.456 52.68 13.056C52.68 10.656 51.072 9.288 48 9.288H43.92V16.824H48ZM69.7191 17.712C69.7191 17.904 69.6951 18.192 69.6711 18.408H59.3511C59.6391 20.64 61.4391 22.128 63.9591 22.128C65.4471 22.128 66.6951 21.624 67.6311 20.592L68.9031 22.08C67.7511 23.424 65.9991 24.144 63.8871 24.144C59.7831 24.144 57.0471 21.432 57.0471 17.64C57.0471 13.872 59.7591 11.16 63.4311 11.16C67.1031 11.16 69.7191 13.8 69.7191 17.712ZM63.4311 13.104C61.2231 13.104 59.5911 14.592 59.3511 16.752H67.5111C67.2711 14.616 65.6631 13.104 63.4311 13.104ZM79.3504 21.6L80.0704 23.256C79.3744 23.856 78.3184 24.144 77.2864 24.144C74.7184 24.144 73.2544 22.728 73.2544 20.16V13.176H71.0944V11.28H73.2544V8.496H75.5584V11.28H79.2064V13.176H75.5584V20.064C75.5584 21.432 76.2784 22.2 77.5504 22.2C78.2224 22.2 78.8704 21.984 79.3504 21.6ZM85.0639 13.416C85.8799 11.928 87.4639 11.16 89.6959 11.16V13.392C89.5039 13.368 89.3359 13.368 89.1679 13.368C86.6959 13.368 85.1599 14.88 85.1599 17.664V24H82.8559V11.28H85.0639V13.416ZM97.8664 24.144C94.0504 24.144 91.2424 21.432 91.2424 17.64C91.2424 13.848 94.0504 11.16 97.8664 11.16C101.682 11.16 104.466 13.848 104.466 17.64C104.466 21.432 101.682 24.144 97.8664 24.144ZM97.8664 22.128C100.314 22.128 102.138 20.352 102.138 17.64C102.138 14.928 100.314 13.176 97.8664 13.176C95.4184 13.176 93.5704 14.928 93.5704 17.64C93.5704 20.352 95.4184 22.128 97.8664 22.128ZM119.22 7.2H121.62L114.252 24H111.876L104.484 7.2H107.076L113.124 21L119.22 7.2ZM133.961 17.712C133.961 17.904 133.937 18.192 133.913 18.408H123.593C123.881 20.64 125.681 22.128 128.201 22.128C129.689 22.128 130.937 21.624 131.873 20.592L133.145 22.08C131.993 23.424 130.241 24.144 128.129 24.144C124.025 24.144 121.289 21.432 121.289 17.64C121.289 13.872 124.001 11.16 127.673 11.16C131.345 11.16 133.961 13.8 133.961 17.712ZM127.673 13.104C125.465 13.104 123.833 14.592 123.593 16.752H131.753C131.513 14.616 129.905 13.104 127.673 13.104ZM147.537 24H144.921L141.249 19.128L137.529 24H134.961L139.977 17.496L135.201 11.28H137.769L141.273 15.864L144.753 11.28H147.273L142.473 17.496L147.537 24ZM154.449 11.16C157.929 11.16 159.897 12.84 159.897 16.32V24H157.713V22.32C156.945 23.472 155.529 24.144 153.537 24.144C150.657 24.144 148.833 22.608 148.833 20.4C148.833 18.36 150.153 16.68 153.945 16.68H157.593V16.224C157.593 14.28 156.465 13.152 154.185 13.152C152.673 13.152 151.137 13.68 150.153 14.52L149.193 12.792C150.513 11.736 152.409 11.16 154.449 11.16ZM153.921 22.368C155.649 22.368 157.017 21.576 157.593 20.112V18.336H154.041C151.761 18.336 151.113 19.224 151.113 20.304C151.113 21.576 152.169 22.368 153.921 22.368Z" fill="white"/>
<path d="M0 24L2.538e-06 8L7.99997 12.4444V19.5999L14.4 23.2L20.7999 19.5999V12.4444L28.8 8V24L14.4 31.9999L0 24Z" fill="#192657"/>
<path fill-rule="evenodd" clip-rule="evenodd" d="M4 10.2222L0 7.99999L14.4 0L28.8 7.99999L24.8 10.2222V21.9999L14.4 28L3.99999 21.9999L4 10.2222ZM24.3667 10.463L20.7999 12.4444V12.4L14.4 8.79996L7.99997 12.4V12.4444L4.43332 10.463V21.7538L14.4 27.5038L24.3667 21.7538V10.463Z" fill="url(#paint0_linear_27_17)"/>
<defs>
<linearGradient id="paint0_linear_27_17" x1="3.99999" y1="6.2222" x2="25.6" y2="6.22221" gradientUnits="userSpaceOnUse">
<stop stop-color="#64C2DB"/>
<stop offset="0.307292" stop-color="#7476ED"/>
<stop offset="0.604167" stop-color="#C994DF"/>
<stop offset="1" stop-color="#E56F8C"/>
</linearGradient>
</defs>
</svg>
