<svg width="169" height="32" viewBox="0 0 169 32" fill="none" xmlns="http://www.w3.org/2000/svg">
<path d="M49.45 7.5C54 7.5 56.75 9.8 56.75 13.6C56.75 17.4 54 19.7 49.45 19.7H45.125V25H42.625V7.5H49.45ZM49.375 17.525C52.575 17.525 54.25 16.1 54.25 13.6C54.25 11.1 52.575 9.675 49.375 9.675H45.125V17.525H49.375ZM71.999 18.45C71.999 18.65 71.974 18.95 71.949 19.175H61.199C61.499 21.5 63.374 23.05 65.999 23.05C67.549 23.05 68.849 22.525 69.824 21.45L71.149 23C69.949 24.4 68.124 25.15 65.924 25.15C61.649 25.15 58.799 22.325 58.799 18.375C58.799 14.45 61.624 11.625 65.449 11.625C69.274 11.625 71.999 14.375 71.999 18.45ZM65.449 13.65C63.149 13.65 61.449 15.2 61.199 17.45H69.699C69.449 15.225 67.774 13.65 65.449 13.65ZM82.0316 22.5L82.7816 24.225C82.0566 24.85 80.9566 25.15 79.8816 25.15C77.2066 25.15 75.6816 23.675 75.6816 21V13.725H73.4316V11.75H75.6816V8.85H78.0816V11.75H81.8816V13.725H78.0816V20.9C78.0816 22.325 78.8316 23.125 80.1566 23.125C80.8566 23.125 81.5316 22.9 82.0316 22.5ZM87.9832 13.975C88.8332 12.425 90.4832 11.625 92.8082 11.625V13.95C92.6082 13.925 92.4332 13.925 92.2582 13.925C89.6832 13.925 88.0832 15.5 88.0832 18.4V25H85.6832V11.75H87.9832V13.975ZM101.319 25.15C97.3441 25.15 94.4191 22.325 94.4191 18.375C94.4191 14.425 97.3441 11.625 101.319 11.625C105.294 11.625 108.194 14.425 108.194 18.375C108.194 22.325 105.294 25.15 101.319 25.15ZM101.319 23.05C103.869 23.05 105.769 21.2 105.769 18.375C105.769 15.55 103.869 13.725 101.319 13.725C98.7691 13.725 96.8441 15.55 96.8441 18.375C96.8441 21.2 98.7691 23.05 101.319 23.05ZM123.562 7.5H126.062L118.387 25H115.912L108.212 7.5H110.912L117.212 21.875L123.562 7.5ZM138.918 18.45C138.918 18.65 138.893 18.95 138.868 19.175H128.118C128.418 21.5 130.293 23.05 132.918 23.05C134.468 23.05 135.768 22.525 136.743 21.45L138.068 23C136.868 24.4 135.043 25.15 132.843 25.15C128.568 25.15 125.718 22.325 125.718 18.375C125.718 14.45 128.543 11.625 132.368 11.625C136.193 11.625 138.918 14.375 138.918 18.45ZM132.368 13.65C130.068 13.65 128.368 15.2 128.118 17.45H136.618C136.368 15.225 134.693 13.65 132.368 13.65ZM153.059 25H150.334L146.509 19.925L142.634 25H139.959L145.184 18.225L140.209 11.75H142.884L146.534 16.525L150.159 11.75H152.784L147.784 18.225L153.059 25ZM160.259 11.625C163.884 11.625 165.934 13.375 165.934 17V25H163.659V23.25C162.859 24.45 161.384 25.15 159.309 25.15C156.309 25.15 154.409 23.55 154.409 21.25C154.409 19.125 155.784 17.375 159.734 17.375H163.534V16.9C163.534 14.875 162.359 13.7 159.984 13.7C158.409 13.7 156.809 14.25 155.784 15.125L154.784 13.325C156.159 12.225 158.134 11.625 160.259 11.625ZM159.709 23.3C161.509 23.3 162.934 22.475 163.534 20.95V19.1H159.834C157.459 19.1 156.784 20.025 156.784 21.15C156.784 22.475 157.884 23.3 159.709 23.3Z" fill="white"/>
<path d="M5.89359 10.1651L16 4.33013L26.1064 10.1651V21.8349L16 27.6699L5.89359 21.8349V10.1651Z" stroke="white" stroke-width="7.5"/>
</svg>
