<svg width="118" height="59" viewBox="0 0 118 59" fill="none" xmlns="http://www.w3.org/2000/svg">
<path d="M8.76773 41.9C12.9537 41.9 15.4837 44.016 15.4837 47.512C15.4837 51.008 12.9537 53.124 8.76773 53.124H4.78873V58H2.48873V41.9H8.76773ZM8.69873 51.123C11.6427 51.123 13.1837 49.812 13.1837 47.512C13.1837 45.212 11.6427 43.901 8.69873 43.901H4.78873V51.123H8.69873ZM29.5128 51.974C29.5128 52.158 29.4898 52.434 29.4668 52.641H19.5768C19.8528 54.78 21.5778 56.206 23.9928 56.206C25.4188 56.206 26.6148 55.723 27.5118 54.734L28.7308 56.16C27.6268 57.448 25.9478 58.138 23.9238 58.138C19.9908 58.138 17.3688 55.539 17.3688 51.905C17.3688 48.294 19.9678 45.695 23.4868 45.695C27.0058 45.695 29.5128 48.225 29.5128 51.974ZM23.4868 47.558C21.3708 47.558 19.8068 48.984 19.5768 51.054H27.3968C27.1668 49.007 25.6258 47.558 23.4868 47.558ZM38.7428 55.7L39.4328 57.287C38.7658 57.862 37.7538 58.138 36.7648 58.138C34.3038 58.138 32.9008 56.781 32.9008 54.32V47.627H30.8308V45.81H32.9008V43.142H35.1088V45.81H38.6048V47.627H35.1088V54.228C35.1088 55.539 35.7988 56.275 37.0178 56.275C37.6618 56.275 38.2828 56.068 38.7428 55.7ZM44.2183 47.857C45.0003 46.431 46.5183 45.695 48.6573 45.695V47.834C48.4733 47.811 48.3123 47.811 48.1513 47.811C45.7823 47.811 44.3103 49.26 44.3103 51.928V58H42.1023V45.81H44.2183V47.857ZM56.4873 58.138C52.8303 58.138 50.1393 55.539 50.1393 51.905C50.1393 48.271 52.8303 45.695 56.4873 45.695C60.1443 45.695 62.8123 48.271 62.8123 51.905C62.8123 55.539 60.1443 58.138 56.4873 58.138ZM56.4873 56.206C58.8333 56.206 60.5813 54.504 60.5813 51.905C60.5813 49.306 58.8333 47.627 56.4873 47.627C54.1413 47.627 52.3703 49.306 52.3703 51.905C52.3703 54.504 54.1413 56.206 56.4873 56.206ZM76.9511 41.9H79.2511L72.1901 58H69.9131L62.8291 41.9H65.3131L71.1091 55.125L76.9511 41.9ZM91.0783 51.974C91.0783 52.158 91.0553 52.434 91.0323 52.641H81.1423C81.4183 54.78 83.1433 56.206 85.5583 56.206C86.9843 56.206 88.1803 55.723 89.0773 54.734L90.2963 56.16C89.1923 57.448 87.5133 58.138 85.4893 58.138C81.5563 58.138 78.9343 55.539 78.9343 51.905C78.9343 48.294 81.5333 45.695 85.0523 45.695C88.5713 45.695 91.0783 48.225 91.0783 51.974ZM85.0523 47.558C82.9363 47.558 81.3723 48.984 81.1423 51.054H88.9623C88.7323 49.007 87.1913 47.558 85.0523 47.558ZM104.088 58H101.581L98.0624 53.331L94.4974 58H92.0364L96.8434 51.767L92.2664 45.81H94.7274L98.0854 50.203L101.42 45.81H103.835L99.2354 51.767L104.088 58ZM110.712 45.695C114.047 45.695 115.933 47.305 115.933 50.64V58H113.84V56.39C113.104 57.494 111.747 58.138 109.838 58.138C107.078 58.138 105.33 56.666 105.33 54.55C105.33 52.595 106.595 50.985 110.229 50.985H113.725V50.548C113.725 48.685 112.644 47.604 110.459 47.604C109.01 47.604 107.538 48.11 106.595 48.915L105.675 47.259C106.94 46.247 108.757 45.695 110.712 45.695ZM110.206 56.436C111.862 56.436 113.173 55.677 113.725 54.274V52.572H110.321C108.136 52.572 107.515 53.423 107.515 54.458C107.515 55.677 108.527 56.436 110.206 56.436Z" fill="white"/>
<path d="M46 24L46 8L53.7778 12.4444V19.5999L60 23.2L66.2222 19.5999V12.4444L74 8V24L60 31.9999L46 24Z" fill="#192657"/>
<path fill-rule="evenodd" clip-rule="evenodd" d="M49.8889 10.2222L46 8L60 0L74 8L70.1111 10.2222V21.9999L60 28L49.8889 21.9999L49.8889 10.2222ZM69.6898 10.463L66.2222 12.4444V12.4L60 8.79996L53.7778 12.4L53.7778 12.4444L50.3102 10.463V21.7538L60 27.5038L69.6898 21.7538V10.463Z" fill="url(#paint0_linear_19_113)"/>
<defs>
<linearGradient id="paint0_linear_19_113" x1="49.8889" y1="6.2222" x2="70.8889" y2="6.22221" gradientUnits="userSpaceOnUse">
<stop stop-color="#64C2DB"/>
<stop offset="0.307292" stop-color="#7476ED"/>
<stop offset="0.604167" stop-color="#C994DF"/>
<stop offset="1" stop-color="#E56F8C"/>
</linearGradient>
</defs>
</svg>
