<svg width="167" height="32" viewBox="0 0 167 32" fill="none" xmlns="http://www.w3.org/2000/svg">
<path d="M47.45 7.5C52 7.5 54.75 9.8 54.75 13.6C54.75 17.4 52 19.7 47.45 19.7H43.125V25H40.625V7.5H47.45ZM47.375 17.525C50.575 17.525 52.25 16.1 52.25 13.6C52.25 11.1 50.575 9.675 47.375 9.675H43.125V17.525H47.375ZM69.999 18.45C69.999 18.65 69.974 18.95 69.949 19.175H59.199C59.499 21.5 61.374 23.05 63.999 23.05C65.549 23.05 66.849 22.525 67.824 21.45L69.149 23C67.949 24.4 66.124 25.15 63.924 25.15C59.649 25.15 56.799 22.325 56.799 18.375C56.799 14.45 59.624 11.625 63.449 11.625C67.274 11.625 69.999 14.375 69.999 18.45ZM63.449 13.65C61.149 13.65 59.449 15.2 59.199 17.45H67.699C67.449 15.225 65.774 13.65 63.449 13.65ZM80.0316 22.5L80.7816 24.225C80.0566 24.85 78.9566 25.15 77.8816 25.15C75.2066 25.15 73.6816 23.675 73.6816 21V13.725H71.4316V11.75H73.6816V8.85H76.0816V11.75H79.8816V13.725H76.0816V20.9C76.0816 22.325 76.8316 23.125 78.1566 23.125C78.8566 23.125 79.5316 22.9 80.0316 22.5ZM85.9832 13.975C86.8332 12.425 88.4832 11.625 90.8082 11.625V13.95C90.6082 13.925 90.4332 13.925 90.2582 13.925C87.6832 13.925 86.0832 15.5 86.0832 18.4V25H83.6832V11.75H85.9832V13.975ZM99.3191 25.15C95.3441 25.15 92.4191 22.325 92.4191 18.375C92.4191 14.425 95.3441 11.625 99.3191 11.625C103.294 11.625 106.194 14.425 106.194 18.375C106.194 22.325 103.294 25.15 99.3191 25.15ZM99.3191 23.05C101.869 23.05 103.769 21.2 103.769 18.375C103.769 15.55 101.869 13.725 99.3191 13.725C96.7691 13.725 94.8441 15.55 94.8441 18.375C94.8441 21.2 96.7691 23.05 99.3191 23.05ZM121.562 7.5H124.062L116.387 25H113.912L106.212 7.5H108.912L115.212 21.875L121.562 7.5ZM136.918 18.45C136.918 18.65 136.893 18.95 136.868 19.175H126.118C126.418 21.5 128.293 23.05 130.918 23.05C132.468 23.05 133.768 22.525 134.743 21.45L136.068 23C134.868 24.4 133.043 25.15 130.843 25.15C126.568 25.15 123.718 22.325 123.718 18.375C123.718 14.45 126.543 11.625 130.368 11.625C134.193 11.625 136.918 14.375 136.918 18.45ZM130.368 13.65C128.068 13.65 126.368 15.2 126.118 17.45H134.618C134.368 15.225 132.693 13.65 130.368 13.65ZM151.059 25H148.334L144.509 19.925L140.634 25H137.959L143.184 18.225L138.209 11.75H140.884L144.534 16.525L148.159 11.75H150.784L145.784 18.225L151.059 25ZM158.259 11.625C161.884 11.625 163.934 13.375 163.934 17V25H161.659V23.25C160.859 24.45 159.384 25.15 157.309 25.15C154.309 25.15 152.409 23.55 152.409 21.25C152.409 19.125 153.784 17.375 157.734 17.375H161.534V16.9C161.534 14.875 160.359 13.7 157.984 13.7C156.409 13.7 154.809 14.25 153.784 15.125L152.784 13.325C154.159 12.225 156.134 11.625 158.259 11.625ZM157.709 23.3C159.509 23.3 160.934 22.475 161.534 20.95V19.1H157.834C155.459 19.1 154.784 20.025 154.784 21.15C154.784 22.475 155.884 23.3 157.709 23.3Z" fill="white"/>
<path d="M0 24L2.4675e-06 8L7.77775 12.4444V19.5999L14 23.2L20.2222 19.5999V12.4444L28 8V24L14 31.9999L0 24Z" fill="#192657"/>
<path fill-rule="evenodd" clip-rule="evenodd" d="M3.88889 10.2222L2.4675e-06 8L14 0L28 8L24.1111 10.2222V21.9999L14 28L3.88888 21.9999L3.88889 10.2222ZM23.6898 10.463L20.2222 12.4444V12.4L14 8.79996L7.77775 12.4L7.77775 12.4444L4.31018 10.463V21.7538L14 27.5038L23.6898 21.7538V10.463Z" fill="url(#paint0_linear_21_128)"/>
<defs>
<linearGradient id="paint0_linear_21_128" x1="3.88888" y1="6.2222" x2="24.8889" y2="6.22221" gradientUnits="userSpaceOnUse">
<stop stop-color="#64C2DB"/>
<stop offset="0.307292" stop-color="#7476ED"/>
<stop offset="0.604167" stop-color="#C994DF"/>
<stop offset="1" stop-color="#E56F8C"/>
</linearGradient>
</defs>
</svg>
