<svg width="167" height="32" viewBox="0 0 167 32" fill="none" xmlns="http://www.w3.org/2000/svg">
<path d="M40.625 25V7.5H47.45C48.9833 7.5 50.2917 7.74167 51.375 8.225C52.4583 8.70833 53.2917 9.40833 53.875 10.325C54.4583 11.2417 54.75 12.3333 54.75 13.6C54.75 14.8667 54.4583 15.9583 53.875 16.875C53.2917 17.775 52.4583 18.475 51.375 18.975C50.2917 19.4583 48.9833 19.7 47.45 19.7H42L43.125 18.525V25H40.625ZM43.125 18.775L42 17.525H47.375C48.975 17.525 50.1833 17.1833 51 16.5C51.8333 15.8167 52.25 14.85 52.25 13.6C52.25 12.35 51.8333 11.3833 51 10.7C50.1833 10.0167 48.975 9.675 47.375 9.675H42L43.125 8.425V18.775ZM63.924 25.15C62.5074 25.15 61.2574 24.8583 60.174 24.275C59.1074 23.6917 58.274 22.8917 57.674 21.875C57.0907 20.8583 56.799 19.6917 56.799 18.375C56.799 17.0583 57.0824 15.8917 57.649 14.875C58.2324 13.8583 59.024 13.0667 60.024 12.5C61.0407 11.9167 62.1824 11.625 63.449 11.625C64.7324 11.625 65.8657 11.9083 66.849 12.475C67.8324 13.0417 68.599 13.8417 69.149 14.875C69.7157 15.8917 69.999 17.0833 69.999 18.45C69.999 18.55 69.9907 18.6667 69.974 18.8C69.974 18.9333 69.9657 19.0583 69.949 19.175H58.674V17.45H68.699L67.724 18.05C67.7407 17.2 67.5657 16.4417 67.199 15.775C66.8324 15.1083 66.324 14.5917 65.674 14.225C65.0407 13.8417 64.299 13.65 63.449 13.65C62.6157 13.65 61.874 13.8417 61.224 14.225C60.574 14.5917 60.0657 15.1167 59.699 15.8C59.3324 16.4667 59.149 17.2333 59.149 18.1V18.5C59.149 19.3833 59.349 20.175 59.749 20.875C60.1657 21.5583 60.7407 22.0917 61.474 22.475C62.2074 22.8583 63.049 23.05 63.999 23.05C64.7824 23.05 65.4907 22.9167 66.124 22.65C66.774 22.3833 67.3407 21.9833 67.824 21.45L69.149 23C68.549 23.7 67.799 24.2333 66.899 24.6C66.0157 24.9667 65.024 25.15 63.924 25.15ZM77.8816 25.15C76.5483 25.15 75.515 24.7917 74.7816 24.075C74.0483 23.3583 73.6816 22.3333 73.6816 21V8.85H76.0816V20.9C76.0816 21.6167 76.2566 22.1667 76.6066 22.55C76.9733 22.9333 77.49 23.125 78.1566 23.125C78.9066 23.125 79.5316 22.9167 80.0316 22.5L80.7816 24.225C80.415 24.5417 79.9733 24.775 79.4566 24.925C78.9566 25.075 78.4316 25.15 77.8816 25.15ZM71.4316 13.725V11.75H79.8816V13.725H71.4316ZM83.6832 25V11.75H85.9832V15.35L85.7582 14.45C86.1249 13.5333 86.7415 12.8333 87.6082 12.35C88.4749 11.8667 89.5415 11.625 90.8082 11.625V13.95C90.7082 13.9333 90.6082 13.925 90.5082 13.925C90.4249 13.925 90.3415 13.925 90.2582 13.925C88.9749 13.925 87.9582 14.3083 87.2082 15.075C86.4582 15.8417 86.0832 16.95 86.0832 18.4V25H83.6832ZM99.3191 25.15C97.9858 25.15 96.8025 24.8583 95.7691 24.275C94.7358 23.6917 93.9191 22.8917 93.3191 21.875C92.7191 20.8417 92.4191 19.675 92.4191 18.375C92.4191 17.0583 92.7191 15.8917 93.3191 14.875C93.9191 13.8583 94.7358 13.0667 95.7691 12.5C96.8025 11.9167 97.9858 11.625 99.3191 11.625C100.636 11.625 101.811 11.9167 102.844 12.5C103.894 13.0667 104.711 13.8583 105.294 14.875C105.894 15.875 106.194 17.0417 106.194 18.375C106.194 19.6917 105.894 20.8583 105.294 21.875C104.711 22.8917 103.894 23.6917 102.844 24.275C101.811 24.8583 100.636 25.15 99.3191 25.15ZM99.3191 23.05C100.169 23.05 100.927 22.8583 101.594 22.475C102.277 22.0917 102.811 21.55 103.194 20.85C103.577 20.1333 103.769 19.3083 103.769 18.375C103.769 17.425 103.577 16.6083 103.194 15.925C102.811 15.225 102.277 14.6833 101.594 14.3C100.927 13.9167 100.169 13.725 99.3191 13.725C98.4691 13.725 97.7108 13.9167 97.0441 14.3C96.3775 14.6833 95.8441 15.225 95.4441 15.925C95.0441 16.6083 94.8441 17.425 94.8441 18.375C94.8441 19.3083 95.0441 20.1333 95.4441 20.85C95.8441 21.55 96.3775 22.0917 97.0441 22.475C97.7108 22.8583 98.4691 23.05 99.3191 23.05ZM113.912 25L106.212 7.5H108.912L115.987 23.65H114.437L121.562 7.5H124.062L116.387 25H113.912ZM130.843 25.15C129.426 25.15 128.176 24.8583 127.093 24.275C126.026 23.6917 125.193 22.8917 124.593 21.875C124.01 20.8583 123.718 19.6917 123.718 18.375C123.718 17.0583 124.001 15.8917 124.568 14.875C125.151 13.8583 125.943 13.0667 126.943 12.5C127.96 11.9167 129.101 11.625 130.368 11.625C131.651 11.625 132.785 11.9083 133.768 12.475C134.751 13.0417 135.518 13.8417 136.068 14.875C136.635 15.8917 136.918 17.0833 136.918 18.45C136.918 18.55 136.91 18.6667 136.893 18.8C136.893 18.9333 136.885 19.0583 136.868 19.175H125.593V17.45H135.618L134.643 18.05C134.66 17.2 134.485 16.4417 134.118 15.775C133.751 15.1083 133.243 14.5917 132.593 14.225C131.96 13.8417 131.218 13.65 130.368 13.65C129.535 13.65 128.793 13.8417 128.143 14.225C127.493 14.5917 126.985 15.1167 126.618 15.8C126.251 16.4667 126.068 17.2333 126.068 18.1V18.5C126.068 19.3833 126.268 20.175 126.668 20.875C127.085 21.5583 127.66 22.0917 128.393 22.475C129.126 22.8583 129.968 23.05 130.918 23.05C131.701 23.05 132.41 22.9167 133.043 22.65C133.693 22.3833 134.26 21.9833 134.743 21.45L136.068 23C135.468 23.7 134.718 24.2333 133.818 24.6C132.935 24.9667 131.943 25.15 130.843 25.15ZM137.959 25L143.659 17.6L143.634 18.825L138.209 11.75H140.884L145.034 17.2H144.009L148.159 11.75H150.784L145.284 18.875L145.309 17.6L151.059 25H148.334L143.959 19.2L144.934 19.35L140.634 25H137.959ZM161.659 25V22.2L161.534 21.675V16.9C161.534 15.8833 161.234 15.1 160.634 14.55C160.051 13.9833 159.168 13.7 157.984 13.7C157.201 13.7 156.434 13.8333 155.684 14.1C154.934 14.35 154.301 14.6917 153.784 15.125L152.784 13.325C153.468 12.775 154.284 12.3583 155.234 12.075C156.201 11.775 157.209 11.625 158.259 11.625C160.076 11.625 161.476 12.0667 162.459 12.95C163.443 13.8333 163.934 15.1833 163.934 17V25H161.659ZM157.309 25.15C156.326 25.15 155.459 24.9833 154.709 24.65C153.976 24.3167 153.409 23.8583 153.009 23.275C152.609 22.675 152.409 22 152.409 21.25C152.409 20.5333 152.576 19.8833 152.909 19.3C153.259 18.7167 153.818 18.25 154.584 17.9C155.368 17.55 156.418 17.375 157.734 17.375H161.934V19.1H157.834C156.634 19.1 155.826 19.3 155.409 19.7C154.993 20.1 154.784 20.5833 154.784 21.15C154.784 21.8 155.043 22.325 155.559 22.725C156.076 23.1083 156.793 23.3 157.709 23.3C158.609 23.3 159.393 23.1 160.059 22.7C160.743 22.3 161.234 21.7167 161.534 20.95L162.009 22.6C161.693 23.3833 161.134 24.0083 160.334 24.475C159.534 24.925 158.526 25.15 157.309 25.15Z" fill="black"/>
<path d="M0 24L2.4675e-06 8L7.77775 12.4444V19.5999L14 23.2L20.2222 19.5999V12.4444L28 8V24L14 31.9999L0 24Z" fill="#192657"/>
<path fill-rule="evenodd" clip-rule="evenodd" d="M3.88889 10.2222L2.4675e-06 8L14 0L28 8L24.1111 10.2222V21.9999L14 28L3.88888 21.9999L3.88889 10.2222ZM23.6898 10.463L20.2222 12.4444V12.4L14 8.79996L7.77775 12.4L7.77775 12.4444L4.31018 10.463V21.7538L14 27.5038L23.6898 21.7538V10.463Z" fill="url(#paint0_linear_59_6)"/>
<defs>
<linearGradient id="paint0_linear_59_6" x1="3.88888" y1="6.2222" x2="24.8889" y2="6.22221" gradientUnits="userSpaceOnUse">
<stop stop-color="#64C2DB"/>
<stop offset="0.307292" stop-color="#7476ED"/>
<stop offset="0.604167" stop-color="#C994DF"/>
<stop offset="1" stop-color="#E56F8C"/>
</linearGradient>
</defs>
</svg>
