<svg width="118" height="59" viewBox="0 0 118 59" fill="none" xmlns="http://www.w3.org/2000/svg">
<path d="M2.48873 58V41.9H8.76773C10.1784 41.9 11.3821 42.1223 12.3787 42.567C13.3754 43.0117 14.1421 43.6557 14.6787 44.499C15.2154 45.3423 15.4837 46.3467 15.4837 47.512C15.4837 48.6773 15.2154 49.6817 14.6787 50.525C14.1421 51.353 13.3754 51.997 12.3787 52.457C11.3821 52.9017 10.1784 53.124 8.76773 53.124H3.75373L4.78873 52.043V58H2.48873ZM4.78873 52.273L3.75373 51.123H8.69873C10.1707 51.123 11.2824 50.8087 12.0337 50.18C12.8004 49.5513 13.1837 48.662 13.1837 47.512C13.1837 46.362 12.8004 45.4727 12.0337 44.844C11.2824 44.2153 10.1707 43.901 8.69873 43.901H3.75373L4.78873 42.751V52.273ZM23.9238 58.138C22.6205 58.138 21.4705 57.8697 20.4738 57.333C19.4925 56.7963 18.7258 56.0603 18.1738 55.125C17.6372 54.1897 17.3688 53.1163 17.3688 51.905C17.3688 50.6937 17.6295 49.6203 18.1508 48.685C18.6875 47.7497 19.4158 47.0213 20.3358 46.5C21.2712 45.9633 22.3215 45.695 23.4868 45.695C24.6675 45.695 25.7102 45.9557 26.6148 46.477C27.5195 46.9983 28.2248 47.7343 28.7308 48.685C29.2522 49.6203 29.5128 50.7167 29.5128 51.974C29.5128 52.066 29.5052 52.1733 29.4898 52.296C29.4898 52.4187 29.4822 52.5337 29.4668 52.641H19.0938V51.054H28.3168L27.4198 51.606C27.4352 50.824 27.2742 50.1263 26.9368 49.513C26.5995 48.8997 26.1318 48.4243 25.5338 48.087C24.9512 47.7343 24.2688 47.558 23.4868 47.558C22.7202 47.558 22.0378 47.7343 21.4398 48.087C20.8418 48.4243 20.3742 48.9073 20.0368 49.536C19.6995 50.1493 19.5308 50.8547 19.5308 51.652V52.02C19.5308 52.8327 19.7148 53.561 20.0828 54.205C20.4662 54.8337 20.9952 55.3243 21.6698 55.677C22.3445 56.0297 23.1188 56.206 23.9928 56.206C24.7135 56.206 25.3652 56.0833 25.9478 55.838C26.5458 55.5927 27.0672 55.2247 27.5118 54.734L28.7308 56.16C28.1788 56.804 27.4888 57.2947 26.6608 57.632C25.8482 57.9693 24.9358 58.138 23.9238 58.138ZM36.7648 58.138C35.5382 58.138 34.5875 57.8083 33.9128 57.149C33.2382 56.4897 32.9008 55.5467 32.9008 54.32V43.142H35.1088V54.228C35.1088 54.8873 35.2698 55.3933 35.5918 55.746C35.9292 56.0987 36.4045 56.275 37.0178 56.275C37.7078 56.275 38.2828 56.0833 38.7428 55.7L39.4328 57.287C39.0955 57.5783 38.6892 57.793 38.2138 57.931C37.7538 58.069 37.2708 58.138 36.7648 58.138ZM30.8308 47.627V45.81H38.6048V47.627H30.8308ZM42.1023 58V45.81H44.2183V49.122L44.0113 48.294C44.3486 47.4507 44.9159 46.8067 45.7133 46.362C46.5106 45.9173 47.4919 45.695 48.6573 45.695V47.834C48.5653 47.8187 48.4733 47.811 48.3813 47.811C48.3046 47.811 48.2279 47.811 48.1513 47.811C46.9706 47.811 46.0353 48.1637 45.3453 48.869C44.6553 49.5743 44.3103 50.594 44.3103 51.928V58H42.1023ZM56.4873 58.138C55.2607 58.138 54.172 57.8697 53.2213 57.333C52.2707 56.7963 51.5193 56.0603 50.9673 55.125C50.4153 54.1743 50.1393 53.101 50.1393 51.905C50.1393 50.6937 50.4153 49.6203 50.9673 48.685C51.5193 47.7497 52.2707 47.0213 53.2213 46.5C54.172 45.9633 55.2607 45.695 56.4873 45.695C57.6987 45.695 58.7797 45.9633 59.7303 46.5C60.6963 47.0213 61.4477 47.7497 61.9843 48.685C62.5363 49.605 62.8123 50.6783 62.8123 51.905C62.8123 53.1163 62.5363 54.1897 61.9843 55.125C61.4477 56.0603 60.6963 56.7963 59.7303 57.333C58.7797 57.8697 57.6987 58.138 56.4873 58.138ZM56.4873 56.206C57.2693 56.206 57.967 56.0297 58.5803 55.677C59.209 55.3243 59.6997 54.826 60.0523 54.182C60.405 53.5227 60.5813 52.7637 60.5813 51.905C60.5813 51.031 60.405 50.2797 60.0523 49.651C59.6997 49.007 59.209 48.5087 58.5803 48.156C57.967 47.8033 57.2693 47.627 56.4873 47.627C55.7053 47.627 55.0077 47.8033 54.3943 48.156C53.781 48.5087 53.2903 49.007 52.9223 49.651C52.5543 50.2797 52.3703 51.031 52.3703 51.905C52.3703 52.7637 52.5543 53.5227 52.9223 54.182C53.2903 54.826 53.781 55.3243 54.3943 55.677C55.0077 56.0297 55.7053 56.206 56.4873 56.206ZM69.9131 58L62.8291 41.9H65.3131L71.8221 56.758H70.3961L76.9511 41.9H79.2511L72.1901 58H69.9131ZM85.4893 58.138C84.1859 58.138 83.0359 57.8697 82.0393 57.333C81.0579 56.7963 80.2913 56.0603 79.7393 55.125C79.2026 54.1897 78.9343 53.1163 78.9343 51.905C78.9343 50.6937 79.1949 49.6203 79.7163 48.685C80.2529 47.7497 80.9813 47.0213 81.9013 46.5C82.8366 45.9633 83.8869 45.695 85.0523 45.695C86.2329 45.695 87.2756 45.9557 88.1803 46.477C89.0849 46.9983 89.7903 47.7343 90.2963 48.685C90.8176 49.6203 91.0783 50.7167 91.0783 51.974C91.0783 52.066 91.0706 52.1733 91.0553 52.296C91.0553 52.4187 91.0476 52.5337 91.0323 52.641H80.6593V51.054H89.8823L88.9853 51.606C89.0006 50.824 88.8396 50.1263 88.5023 49.513C88.1649 48.8997 87.6973 48.4243 87.0993 48.087C86.5166 47.7343 85.8343 47.558 85.0523 47.558C84.2856 47.558 83.6033 47.7343 83.0053 48.087C82.4073 48.4243 81.9396 48.9073 81.6023 49.536C81.2649 50.1493 81.0963 50.8547 81.0963 51.652V52.02C81.0963 52.8327 81.2803 53.561 81.6483 54.205C82.0316 54.8337 82.5606 55.3243 83.2353 55.677C83.9099 56.0297 84.6843 56.206 85.5583 56.206C86.2789 56.206 86.9306 56.0833 87.5133 55.838C88.1113 55.5927 88.6326 55.2247 89.0773 54.734L90.2963 56.16C89.7443 56.804 89.0543 57.2947 88.2263 57.632C87.4136 57.9693 86.5013 58.138 85.4893 58.138ZM92.0364 58L97.2804 51.192L97.2574 52.319L92.2664 45.81H94.7274L98.5454 50.824H97.6024L101.42 45.81H103.835L98.7754 52.365L98.7984 51.192L104.088 58H101.581L97.5564 52.664L98.4534 52.802L94.4974 58H92.0364ZM113.84 58V55.424L113.725 54.941V50.548C113.725 49.6127 113.449 48.892 112.897 48.386C112.361 47.8647 111.548 47.604 110.459 47.604C109.739 47.604 109.033 47.7267 108.343 47.972C107.653 48.202 107.071 48.5163 106.595 48.915L105.675 47.259C106.304 46.753 107.055 46.3697 107.929 46.109C108.819 45.833 109.746 45.695 110.712 45.695C112.384 45.695 113.672 46.1013 114.576 46.914C115.481 47.7267 115.933 48.9687 115.933 50.64V58H113.84ZM109.838 58.138C108.934 58.138 108.136 57.9847 107.446 57.678C106.772 57.3713 106.25 56.9497 105.882 56.413C105.514 55.861 105.33 55.24 105.33 54.55C105.33 53.8907 105.484 53.2927 105.79 52.756C106.112 52.2193 106.626 51.79 107.331 51.468C108.052 51.146 109.018 50.985 110.229 50.985H114.093V52.572H110.321C109.217 52.572 108.474 52.756 108.09 53.124C107.707 53.492 107.515 53.9367 107.515 54.458C107.515 55.056 107.753 55.539 108.228 55.907C108.704 56.2597 109.363 56.436 110.206 56.436C111.034 56.436 111.755 56.252 112.368 55.884C112.997 55.516 113.449 54.9793 113.725 54.274L114.162 55.792C113.871 56.5127 113.357 57.0877 112.621 57.517C111.885 57.931 110.958 58.138 109.838 58.138Z" fill="black"/>
<path d="M46 24L46 8L53.7778 12.4444V19.5999L60 23.2L66.2222 19.5999V12.4444L74 8V24L60 31.9999L46 24Z" fill="#192657"/>
<path fill-rule="evenodd" clip-rule="evenodd" d="M49.8889 10.2222L46 8L60 0L74 8L70.1111 10.2222V21.9999L60 28L49.8889 21.9999L49.8889 10.2222ZM69.6898 10.463L66.2222 12.4444V12.4L60 8.79996L53.7778 12.4L53.7778 12.4444L50.3102 10.463V21.7538L60 27.5038L69.6898 21.7538V10.463Z" fill="url(#paint0_linear_59_9)"/>
<defs>
<linearGradient id="paint0_linear_59_9" x1="49.8889" y1="6.2222" x2="70.8889" y2="6.22221" gradientUnits="userSpaceOnUse">
<stop stop-color="#64C2DB"/>
<stop offset="0.307292" stop-color="#7476ED"/>
<stop offset="0.604167" stop-color="#C994DF"/>
<stop offset="1" stop-color="#E56F8C"/>
</linearGradient>
</defs>
</svg>
