<svg width="169" height="32" viewBox="0 0 169 32" fill="none" xmlns="http://www.w3.org/2000/svg">
<path d="M42.625 25V7.5H49.45C50.9833 7.5 52.2917 7.74167 53.375 8.225C54.4583 8.70833 55.2917 9.40833 55.875 10.325C56.4583 11.2417 56.75 12.3333 56.75 13.6C56.75 14.8667 56.4583 15.9583 55.875 16.875C55.2917 17.775 54.4583 18.475 53.375 18.975C52.2917 19.4583 50.9833 19.7 49.45 19.7H44L45.125 18.525V25H42.625ZM45.125 18.775L44 17.525H49.375C50.975 17.525 52.1833 17.1833 53 16.5C53.8333 15.8167 54.25 14.85 54.25 13.6C54.25 12.35 53.8333 11.3833 53 10.7C52.1833 10.0167 50.975 9.675 49.375 9.675H44L45.125 8.425V18.775ZM65.924 25.15C64.5074 25.15 63.2574 24.8583 62.174 24.275C61.1074 23.6917 60.274 22.8917 59.674 21.875C59.0907 20.8583 58.799 19.6917 58.799 18.375C58.799 17.0583 59.0824 15.8917 59.649 14.875C60.2324 13.8583 61.024 13.0667 62.024 12.5C63.0407 11.9167 64.1824 11.625 65.449 11.625C66.7324 11.625 67.8657 11.9083 68.849 12.475C69.8324 13.0417 70.599 13.8417 71.149 14.875C71.7157 15.8917 71.999 17.0833 71.999 18.45C71.999 18.55 71.9907 18.6667 71.974 18.8C71.974 18.9333 71.9657 19.0583 71.949 19.175H60.674V17.45H70.699L69.724 18.05C69.7407 17.2 69.5657 16.4417 69.199 15.775C68.8324 15.1083 68.324 14.5917 67.674 14.225C67.0407 13.8417 66.299 13.65 65.449 13.65C64.6157 13.65 63.874 13.8417 63.224 14.225C62.574 14.5917 62.0657 15.1167 61.699 15.8C61.3324 16.4667 61.149 17.2333 61.149 18.1V18.5C61.149 19.3833 61.349 20.175 61.749 20.875C62.1657 21.5583 62.7407 22.0917 63.474 22.475C64.2074 22.8583 65.049 23.05 65.999 23.05C66.7824 23.05 67.4907 22.9167 68.124 22.65C68.774 22.3833 69.3407 21.9833 69.824 21.45L71.149 23C70.549 23.7 69.799 24.2333 68.899 24.6C68.0157 24.9667 67.024 25.15 65.924 25.15ZM79.8816 25.15C78.5483 25.15 77.515 24.7917 76.7816 24.075C76.0483 23.3583 75.6816 22.3333 75.6816 21V8.85H78.0816V20.9C78.0816 21.6167 78.2566 22.1667 78.6066 22.55C78.9733 22.9333 79.49 23.125 80.1566 23.125C80.9066 23.125 81.5316 22.9167 82.0316 22.5L82.7816 24.225C82.415 24.5417 81.9733 24.775 81.4566 24.925C80.9566 25.075 80.4316 25.15 79.8816 25.15ZM73.4316 13.725V11.75H81.8816V13.725H73.4316ZM85.6832 25V11.75H87.9832V15.35L87.7582 14.45C88.1249 13.5333 88.7415 12.8333 89.6082 12.35C90.4749 11.8667 91.5415 11.625 92.8082 11.625V13.95C92.7082 13.9333 92.6082 13.925 92.5082 13.925C92.4249 13.925 92.3415 13.925 92.2582 13.925C90.9749 13.925 89.9582 14.3083 89.2082 15.075C88.4582 15.8417 88.0832 16.95 88.0832 18.4V25H85.6832ZM101.319 25.15C99.9858 25.15 98.8025 24.8583 97.7691 24.275C96.7358 23.6917 95.9191 22.8917 95.3191 21.875C94.7191 20.8417 94.4191 19.675 94.4191 18.375C94.4191 17.0583 94.7191 15.8917 95.3191 14.875C95.9191 13.8583 96.7358 13.0667 97.7691 12.5C98.8025 11.9167 99.9858 11.625 101.319 11.625C102.636 11.625 103.811 11.9167 104.844 12.5C105.894 13.0667 106.711 13.8583 107.294 14.875C107.894 15.875 108.194 17.0417 108.194 18.375C108.194 19.6917 107.894 20.8583 107.294 21.875C106.711 22.8917 105.894 23.6917 104.844 24.275C103.811 24.8583 102.636 25.15 101.319 25.15ZM101.319 23.05C102.169 23.05 102.927 22.8583 103.594 22.475C104.277 22.0917 104.811 21.55 105.194 20.85C105.577 20.1333 105.769 19.3083 105.769 18.375C105.769 17.425 105.577 16.6083 105.194 15.925C104.811 15.225 104.277 14.6833 103.594 14.3C102.927 13.9167 102.169 13.725 101.319 13.725C100.469 13.725 99.7108 13.9167 99.0441 14.3C98.3775 14.6833 97.8441 15.225 97.4441 15.925C97.0441 16.6083 96.8441 17.425 96.8441 18.375C96.8441 19.3083 97.0441 20.1333 97.4441 20.85C97.8441 21.55 98.3775 22.0917 99.0441 22.475C99.7108 22.8583 100.469 23.05 101.319 23.05ZM115.912 25L108.212 7.5H110.912L117.987 23.65H116.437L123.562 7.5H126.062L118.387 25H115.912ZM132.843 25.15C131.426 25.15 130.176 24.8583 129.093 24.275C128.026 23.6917 127.193 22.8917 126.593 21.875C126.01 20.8583 125.718 19.6917 125.718 18.375C125.718 17.0583 126.001 15.8917 126.568 14.875C127.151 13.8583 127.943 13.0667 128.943 12.5C129.96 11.9167 131.101 11.625 132.368 11.625C133.651 11.625 134.785 11.9083 135.768 12.475C136.751 13.0417 137.518 13.8417 138.068 14.875C138.635 15.8917 138.918 17.0833 138.918 18.45C138.918 18.55 138.91 18.6667 138.893 18.8C138.893 18.9333 138.885 19.0583 138.868 19.175H127.593V17.45H137.618L136.643 18.05C136.66 17.2 136.485 16.4417 136.118 15.775C135.751 15.1083 135.243 14.5917 134.593 14.225C133.96 13.8417 133.218 13.65 132.368 13.65C131.535 13.65 130.793 13.8417 130.143 14.225C129.493 14.5917 128.985 15.1167 128.618 15.8C128.251 16.4667 128.068 17.2333 128.068 18.1V18.5C128.068 19.3833 128.268 20.175 128.668 20.875C129.085 21.5583 129.66 22.0917 130.393 22.475C131.126 22.8583 131.968 23.05 132.918 23.05C133.701 23.05 134.41 22.9167 135.043 22.65C135.693 22.3833 136.26 21.9833 136.743 21.45L138.068 23C137.468 23.7 136.718 24.2333 135.818 24.6C134.935 24.9667 133.943 25.15 132.843 25.15ZM139.959 25L145.659 17.6L145.634 18.825L140.209 11.75H142.884L147.034 17.2H146.009L150.159 11.75H152.784L147.284 18.875L147.309 17.6L153.059 25H150.334L145.959 19.2L146.934 19.35L142.634 25H139.959ZM163.659 25V22.2L163.534 21.675V16.9C163.534 15.8833 163.234 15.1 162.634 14.55C162.051 13.9833 161.168 13.7 159.984 13.7C159.201 13.7 158.434 13.8333 157.684 14.1C156.934 14.35 156.301 14.6917 155.784 15.125L154.784 13.325C155.468 12.775 156.284 12.3583 157.234 12.075C158.201 11.775 159.209 11.625 160.259 11.625C162.076 11.625 163.476 12.0667 164.459 12.95C165.443 13.8333 165.934 15.1833 165.934 17V25H163.659ZM159.309 25.15C158.326 25.15 157.459 24.9833 156.709 24.65C155.976 24.3167 155.409 23.8583 155.009 23.275C154.609 22.675 154.409 22 154.409 21.25C154.409 20.5333 154.576 19.8833 154.909 19.3C155.259 18.7167 155.818 18.25 156.584 17.9C157.368 17.55 158.418 17.375 159.734 17.375H163.934V19.1H159.834C158.634 19.1 157.826 19.3 157.409 19.7C156.993 20.1 156.784 20.5833 156.784 21.15C156.784 21.8 157.043 22.325 157.559 22.725C158.076 23.1083 158.793 23.3 159.709 23.3C160.609 23.3 161.393 23.1 162.059 22.7C162.743 22.3 163.234 21.7167 163.534 20.95L164.009 22.6C163.693 23.3833 163.134 24.0083 162.334 24.475C161.534 24.925 160.526 25.15 159.309 25.15Z" fill="black"/>
<path d="M5.89359 10.1651L16 4.33013L26.1064 10.1651V21.8349L16 27.6699L5.89359 21.8349V10.1651Z" stroke="black" stroke-width="7.5"/>
</svg>
